<svg xmlns="http://www.w3.org/2000/svg" viewBox="0 0 81.03 125.11"><defs><style>.cls-1,.cls-4{fill:#f8fbff;}.cls-1{stroke:#a0ccdf;}.cls-2{fill:#a0ccdf;}.cls-3{fill:#4b859e;}.cls-5{fill:#fb7156;}</style></defs><g id="Layer_2" data-name="Layer 2"><g id="Layer_1-2" data-name="Layer 1"><path d="M4.73,98.64v.88H1.09v2.82H4v.89H1.09V107H0V98.64Zm.91,5a3.62,3.62,0,0,1,.41-1.77,2.94,2.94,0,0,1,1.11-1.18,3.11,3.11,0,0,1,1.6-.42,2.93,2.93,0,0,1,1.5.37,2.57,2.57,0,0,1,1,.93v-1.2h1.1V107h-1.1v-1.22a2.66,2.66,0,0,1-1,1,3,3,0,0,1-1.48.37,2.94,2.94,0,0,1-2.7-1.65A3.67,3.67,0,0,1,5.64,103.69Zm5.57,0a2.68,2.68,0,0,0-.3-1.3,2.21,2.21,0,0,0-.82-.84,2.16,2.16,0,0,0-1.12-.3,2.21,2.21,0,0,0-1.11.29,2.05,2.05,0,0,0-.81.84,2.68,2.68,0,0,0-.3,1.3,2.79,2.79,0,0,0,.3,1.32,2.14,2.14,0,0,0,.81.85,2.21,2.21,0,0,0,1.11.29,2.25,2.25,0,0,0,1.12-.29,2.17,2.17,0,0,0,.82-.85A2.75,2.75,0,0,0,11.21,103.7Zm2.54,0a3.63,3.63,0,0,1,.41-1.78,2.9,2.9,0,0,1,1.12-1.18,3.31,3.31,0,0,1,1.67-.42,3.22,3.22,0,0,1,2,.58,2.8,2.8,0,0,1,1,1.64H18.81a1.66,1.66,0,0,0-.66-1,2,2,0,0,0-1.2-.35,1.93,1.93,0,0,0-1.51.65,2.62,2.62,0,0,0-.58,1.81,2.72,2.72,0,0,0,.58,1.84,1.92,1.92,0,0,0,1.51.64,2.07,2.07,0,0,0,1.2-.33,1.74,1.74,0,0,0,.66-1H20a3,3,0,0,1-1.06,1.62,3.19,3.19,0,0,1-2,.6,3.31,3.31,0,0,1-1.67-.42,2.92,2.92,0,0,1-1.12-1.19A3.68,3.68,0,0,1,13.75,103.7Zm9-2.38v3.88a1,1,0,0,0,.2.68,1,1,0,0,0,.71.2h.8V107h-1a2,2,0,0,1-1.37-.42,1.82,1.82,0,0,1-.45-1.38v-3.88h-.86v-.9h.86V98.77h1.09v1.65h1.71v.9Zm8.89,5.76a3.73,3.73,0,0,1-1.49-.28,2.61,2.61,0,0,1-1-.82,2,2,0,0,1-.38-1.21h1.16a1.55,1.55,0,0,0,.48,1,1.76,1.76,0,0,0,1.25.4,1.82,1.82,0,0,0,1.22-.38,1.27,1.27,0,0,0,.46-1,1.12,1.12,0,0,0-.27-.78,1.67,1.67,0,0,0-.66-.46c-.26-.1-.62-.21-1.06-.33a9.55,9.55,0,0,1-1.34-.44,2.17,2.17,0,0,1-.85-.67,2.06,2.06,0,0,1-.35-1.25,2.17,2.17,0,0,1,.35-1.21,2.28,2.28,0,0,1,1-.81,3.4,3.4,0,0,1,1.46-.29,3,3,0,0,1,1.92.59,2.19,2.19,0,0,1,.85,1.56h-1.2a1.27,1.27,0,0,0-.51-.84,1.73,1.73,0,0,0-1.17-.38,1.69,1.69,0,0,0-1.12.36,1.2,1.2,0,0,0-.43,1,1.07,1.07,0,0,0,.25.74,2,2,0,0,0,.64.45c.25.09.61.2,1.07.33a9.52,9.52,0,0,1,1.33.46,2.15,2.15,0,0,1,.86.68,2,2,0,0,1,.36,1.25,2.24,2.24,0,0,1-.32,1.15,2.49,2.49,0,0,1-1,.88A3.25,3.25,0,0,1,31.67,107.08Zm7.65-6.78a2.75,2.75,0,0,1,1.35.33,2.14,2.14,0,0,1,.93,1,3.19,3.19,0,0,1,.35,1.54V107H40.87v-3.72a2.07,2.07,0,0,0-.49-1.5,1.77,1.77,0,0,0-1.35-.53,1.84,1.84,0,0,0-1.38.54,2.26,2.26,0,0,0-.5,1.57V107H36.06V98.12h1.09v3.24a2.11,2.11,0,0,1,.89-.78A3,3,0,0,1,39.32,100.3Zm10.41,3.16q0,.32,0,.66H44.44a2.13,2.13,0,0,0,.66,1.52,2.16,2.16,0,0,0,1.48.54,2,2,0,0,0,1.17-.32,1.77,1.77,0,0,0,.68-.89H49.6a2.87,2.87,0,0,1-1.05,1.55,3.24,3.24,0,0,1-2,.59,3.33,3.33,0,0,1-1.68-.42,3,3,0,0,1-1.15-1.19,3.74,3.74,0,0,1-.42-1.8,3.78,3.78,0,0,1,.4-1.79,2.92,2.92,0,0,1,1.14-1.17,3.44,3.44,0,0,1,1.71-.42,3.3,3.3,0,0,1,1.65.4,2.87,2.87,0,0,1,1.11,1.13A3.28,3.28,0,0,1,49.73,103.46Zm-1.12-.23a2.05,2.05,0,0,0-.28-1.07,1.73,1.73,0,0,0-.76-.68,2.24,2.24,0,0,0-1-.24,2.08,2.08,0,0,0-1.42.53,2.19,2.19,0,0,0-.66,1.46Zm8.57.23c0,.21,0,.43,0,.66H51.88a2.13,2.13,0,0,0,.66,1.52,2.16,2.16,0,0,0,1.48.54,2,2,0,0,0,1.18-.32,1.75,1.75,0,0,0,.67-.89H57a2.82,2.82,0,0,1-1,1.55,3.24,3.24,0,0,1-2,.59,3.38,3.38,0,0,1-1.68-.42,3,3,0,0,1-1.15-1.19,3.74,3.74,0,0,1-.42-1.8,3.67,3.67,0,0,1,.41-1.79,2.8,2.8,0,0,1,1.14-1.17,3.65,3.65,0,0,1,3.36,0,2.85,2.85,0,0,1,1.1,1.13A3.28,3.28,0,0,1,57.18,103.46Zm-1.13-.23a2,2,0,0,0-.28-1.07,1.7,1.7,0,0,0-.75-.68,2.28,2.28,0,0,0-1.05-.24,2,2,0,0,0-1.41.53,2.11,2.11,0,0,0-.66,1.46Zm3.9-1.91v3.88a1,1,0,0,0,.2.68,1,1,0,0,0,.71.2h.81V107h-1a2,2,0,0,1-1.37-.42,1.82,1.82,0,0,1-.45-1.38v-3.88H58v-.9h.85V98.77H60v1.65h1.72v.9Zm8.91,0H67.48V107H66.39v-5.68h-.85v-.9h.85V100A2,2,0,0,1,67,98.35a2.65,2.65,0,0,1,1.83-.52v.91a1.46,1.46,0,0,0-1,.29,1.26,1.26,0,0,0-.29.93v.46h1.38ZM73,107.11a3.43,3.43,0,0,1-1.68-.42,3.11,3.11,0,0,1-1.17-1.19,3.74,3.74,0,0,1-.42-1.8,3.58,3.58,0,0,1,.43-1.78,3,3,0,0,1,1.2-1.18,3.61,3.61,0,0,1,3.38,0,2.91,2.91,0,0,1,1.19,1.17,3.47,3.47,0,0,1,.45,1.79,3.54,3.54,0,0,1-.46,1.8,3.14,3.14,0,0,1-1.21,1.19A3.49,3.49,0,0,1,73,107.11Zm0-1a2.26,2.26,0,0,0,1.11-.28,2.07,2.07,0,0,0,.83-.83,3,3,0,0,0,0-2.68,2,2,0,0,0-.82-.82,2.28,2.28,0,0,0-2.19,0,2,2,0,0,0-.8.82,2.74,2.74,0,0,0-.3,1.34,2.94,2.94,0,0,0,.29,1.36,2.08,2.08,0,0,0,.79.82A2.22,2.22,0,0,0,73,106.15Zm5.9-4.66a2.15,2.15,0,0,1,.82-.87A2.57,2.57,0,0,1,81,100.3v1.13h-.29c-1.22,0-1.84.67-1.84,2V107H77.81v-6.58H78.9ZM22.67,119.08a2.31,2.31,0,0,1-.72,1.74,3,3,0,0,1-2.18.69h-1.6V125h-1.1v-8.36h2.7a3,3,0,0,1,2.15.68A2.28,2.28,0,0,1,22.67,119.08Zm-2.9,1.53a1.93,1.93,0,0,0,1.35-.4,1.44,1.44,0,0,0,.43-1.13c0-1-.59-1.54-1.78-1.54h-1.6v3.07Zm3.85,1.08a3.73,3.73,0,0,1,.4-1.77,3,3,0,0,1,1.12-1.18,3.11,3.11,0,0,1,1.6-.42,2.93,2.93,0,0,1,1.5.37,2.47,2.47,0,0,1,.94.93v-1.2h1.11V125H29.18v-1.22a2.63,2.63,0,0,1-1,1,3,3,0,0,1-1.49.37,3,3,0,0,1-1.58-.43A3.15,3.15,0,0,1,24,123.46,3.78,3.78,0,0,1,23.62,121.69Zm5.56,0a2.68,2.68,0,0,0-.3-1.3,2.18,2.18,0,0,0-.81-.84,2.16,2.16,0,0,0-1.12-.3,2.19,2.19,0,0,0-1.11.29,2.05,2.05,0,0,0-.81.84,2.68,2.68,0,0,0-.3,1.3A2.79,2.79,0,0,0,25,123a2.14,2.14,0,0,0,.81.85,2.19,2.19,0,0,0,1.11.29,2.25,2.25,0,0,0,1.12-.29,2.14,2.14,0,0,0,.81-.85A2.75,2.75,0,0,0,29.18,121.7Zm4.28-2.38v3.88a.91.91,0,0,0,.21.68,1,1,0,0,0,.71.2h.8V125h-1a2,2,0,0,1-1.37-.42,1.78,1.78,0,0,1-.46-1.38v-3.88h-.85v-.9h.85v-1.65h1.09v1.65h1.72v.9Zm3.61-2a.75.75,0,0,1-.75-.75.75.75,0,0,1,.22-.53.72.72,0,0,1,.53-.21.66.66,0,0,1,.5.21.71.71,0,0,1,.22.53.69.69,0,0,1-.22.53A.67.67,0,0,1,37.07,117.36Zm.53,1.06V125H36.5v-6.58Zm7.86,3a5.07,5.07,0,0,1,0,.66H40.17a2,2,0,0,0,2.13,2.06,2,2,0,0,0,1.18-.32,1.75,1.75,0,0,0,.67-.89h1.18a2.89,2.89,0,0,1-1.06,1.55,3.22,3.22,0,0,1-2,.59,3.38,3.38,0,0,1-1.68-.42,3,3,0,0,1-1.15-1.19,3.74,3.74,0,0,1-.42-1.8,3.78,3.78,0,0,1,.41-1.79,2.8,2.8,0,0,1,1.14-1.17,3.37,3.37,0,0,1,1.7-.42,3.32,3.32,0,0,1,1.66.4,2.78,2.78,0,0,1,1.1,1.13A3.18,3.18,0,0,1,45.46,121.46Zm-1.13-.23a2,2,0,0,0-.28-1.07,1.7,1.7,0,0,0-.75-.68,2.26,2.26,0,0,0-1-.24,2,2,0,0,0-1.41.53,2.11,2.11,0,0,0-.66,1.46Zm5.77-2.93a2.67,2.67,0,0,1,1.95.74,2.78,2.78,0,0,1,.74,2.08V125H51.71v-3.72a2.07,2.07,0,0,0-.49-1.5,1.77,1.77,0,0,0-1.35-.53,1.84,1.84,0,0,0-1.38.54,2.26,2.26,0,0,0-.5,1.57V125H46.9v-6.58H48v.94a2.14,2.14,0,0,1,.88-.78A2.78,2.78,0,0,1,50.1,118.3Zm5.81,1v3.88a.91.91,0,0,0,.2.68,1,1,0,0,0,.71.2h.8V125h-1a2,2,0,0,1-1.37-.42,1.82,1.82,0,0,1-.46-1.38v-3.88H54v-.9h.85v-1.65h1.1v1.65h1.71v.9Zm5.36,5.79a3.61,3.61,0,0,1-1.35-.25,2.42,2.42,0,0,1-1-.72,2,2,0,0,1-.38-1.07h1.12a1.14,1.14,0,0,0,.46.8,1.76,1.76,0,0,0,1.09.31,1.62,1.62,0,0,0,1-.27.86.86,0,0,0,.36-.7.66.66,0,0,0-.39-.63,4.51,4.51,0,0,0-1.19-.42,10.65,10.65,0,0,1-1.2-.39,2.25,2.25,0,0,1-.79-.59,1.59,1.59,0,0,1-.32-1,1.56,1.56,0,0,1,.3-.92,2,2,0,0,1,.85-.66,3,3,0,0,1,1.26-.25,2.65,2.65,0,0,1,1.76.55,2,2,0,0,1,.72,1.51H62.52a1.11,1.11,0,0,0-.42-.83,1.51,1.51,0,0,0-1-.31,1.53,1.53,0,0,0-.93.25.79.79,0,0,0-.35.66.77.77,0,0,0,.2.54,1.79,1.79,0,0,0,.53.34c.22.08.51.17.89.27a8.42,8.42,0,0,1,1.15.39,1.89,1.89,0,0,1,.76.55,1.46,1.46,0,0,1,.33,1,1.64,1.64,0,0,1-.3,1,2,2,0,0,1-.85.69A3,3,0,0,1,61.27,125.11Z"/><circle class="cls-1" cx="40.72" cy="38.5" r="38"/><path class="cls-2" d="M41.28,18h4.33c0,2.53,0,5.06,0,7.6a2.13,2.13,0,0,0,.63,1.48,2.15,2.15,0,0,0,1.48.63h7.59c0,.14,0,.29,0,.43V51.51a3.22,3.22,0,0,1-2.59,3.34.24.24,0,0,0-.08.06H41.28V48.36H43.4a1.06,1.06,0,0,0,1.12-1.06A1,1,0,0,0,43.4,46.2H41.27V44h6.52a1.08,1.08,0,0,0,1-1.07,1.09,1.09,0,0,0-.3-.75,1.08,1.08,0,0,0-.74-.33H41.27V39.72h6.52a1.08,1.08,0,0,0,.74-.33,1.09,1.09,0,0,0,.3-.75,1.07,1.07,0,0,0-.3-.74,1.08,1.08,0,0,0-.74-.33c-.81,0-1.63,0-2.45,0l-4.07,0V35.4l.43,0h6.09a1,1,0,0,0,.74-.32,1.09,1.09,0,0,0,.3-.75,1.07,1.07,0,0,0-.3-.74,1,1,0,0,0-.74-.33c-.81,0-1.63,0-2.45,0l-4.07,0Z"/><path class="cls-3" d="M55.32,27.73h-7.6a2.13,2.13,0,0,1-1.48-.63,2.15,2.15,0,0,1-.63-1.48c0-2.53,0-5.07,0-7.6a1.19,1.19,0,0,1,.82.4c2.83,2.84,5.68,5.68,8.52,8.52A1.2,1.2,0,0,1,55.32,27.73Z"/><rect class="cls-2" x="33.22" y="31.92" width="8" height="20"/><rect class="cls-2" x="41.22" y="31.92" width="8" height="20"/><path class="cls-2" d="M41.28,54.92H29.89c0-.07-.1-.07-.15-.09a3.24,3.24,0,0,1-2.52-3.41v-30A3.24,3.24,0,0,1,30.61,18H41.28V33.2H34.9a1.09,1.09,0,0,0-1.08.63,1.08,1.08,0,0,0,1,1.53h6.41v2.16H34.9a1.1,1.1,0,0,0-1.08.64,1.08,1.08,0,0,0,1,1.53h6.41v2.14H34.9a1.09,1.09,0,0,0-1.08.63,1.08,1.08,0,0,0,1,1.53h6.41v2.15H34.9a1.09,1.09,0,0,0-1.08.63,1.08,1.08,0,0,0,1,1.53h6.41Z"/><path class="cls-4" d="M52.28,50.82A12.11,12.11,0,0,0,49.71,47a11.94,11.94,0,0,0-3.82-2.58l0,0a7.92,7.92,0,1,0-9.27,0l0,0a12.05,12.05,0,0,0-6.38,6.41,12,12,0,0,0-.94,4.43.34.34,0,0,0,0,.1s0,.41,0,.44c0,.29,0,0,0,0,.1.29.58.27.58,0h1.75c.14,0,.09-.39.09-.53a9.62,9.62,0,0,1,2.8-6.55,9.56,9.56,0,0,1,13.54,0,9.63,9.63,0,0,1,2.81,6.55.25.25,0,0,0,.25.25H53l.09,0a.18.18,0,0,0,.09-.06.22.22,0,0,0,.05-.08.18.18,0,0,0,0-.1A12,12,0,0,0,52.28,50.82ZM41.22,43.46a5.45,5.45,0,0,1-3.88-1.61,5.55,5.55,0,0,1,0-7.8,5.5,5.5,0,1,1,3.88,9.41Z"/><path class="cls-5" d="M51.47,29H50v1.75H48.22v1.5H50V34h1.5V32.25h1.75v-1.5H51.47Z"/></g></g></svg>