<svg xmlns="http://www.w3.org/2000/svg" viewBox="0 0 77 125.11"><defs><style>.cls-1,.cls-4{fill:#f8fbff;}.cls-1{stroke:#a0ccdf;}.cls-2{fill:#a0ccdf;}.cls-3{fill:#4b859e;}.cls-5{fill:#fff;}.cls-6{fill:#fb7156;}</style></defs><g id="Layer_2" data-name="Layer 2"><g id="Layer_1-2" data-name="Layer 1"><path d="M3.69,98.64V107H2.6V98.64Zm5.06,1.66a2.67,2.67,0,0,1,1.95.74,2.78,2.78,0,0,1,.74,2.08V107H10.36v-3.72a2.07,2.07,0,0,0-.49-1.5,1.77,1.77,0,0,0-1.35-.53,1.8,1.8,0,0,0-1.37.54,2.21,2.21,0,0,0-.51,1.57V107H5.55v-6.58H6.64v.94a2.14,2.14,0,0,1,.88-.78A2.81,2.81,0,0,1,8.75,100.3Zm6.8,6.81a3.61,3.61,0,0,1-1.35-.25,2.42,2.42,0,0,1-.95-.72,2,2,0,0,1-.39-1.07H14a1.11,1.11,0,0,0,.46.8,1.76,1.76,0,0,0,1.09.31,1.58,1.58,0,0,0,1-.27.86.86,0,0,0,.36-.7.65.65,0,0,0-.38-.63,4.65,4.65,0,0,0-1.19-.42,9.45,9.45,0,0,1-1.2-.39,2.16,2.16,0,0,1-.79-.59,1.53,1.53,0,0,1-.32-1,1.56,1.56,0,0,1,.3-.92,2,2,0,0,1,.85-.66,3,3,0,0,1,1.26-.25,2.67,2.67,0,0,1,1.76.55,2,2,0,0,1,.72,1.51H16.8a1.11,1.11,0,0,0-.42-.83,1.51,1.51,0,0,0-1-.31,1.53,1.53,0,0,0-.93.25.81.81,0,0,0-.15,1.2,1.79,1.79,0,0,0,.53.34c.22.08.51.17.89.27a8.92,8.92,0,0,1,1.15.39,1.89,1.89,0,0,1,.76.55,1.51,1.51,0,0,1,.33,1,1.64,1.64,0,0,1-.3,1,2,2,0,0,1-.85.69A3.06,3.06,0,0,1,15.55,107.11Zm5.28-5.79v3.88a.91.91,0,0,0,.2.68,1,1,0,0,0,.71.2h.8V107h-1a2,2,0,0,1-1.37-.42,1.82,1.82,0,0,1-.46-1.38v-3.88h-.85v-.9h.85V98.77h1.1v1.65h1.71v.9Zm4.13.17a2.07,2.07,0,0,1,.81-.87,2.57,2.57,0,0,1,1.31-.32v1.13h-.29c-1.22,0-1.83.67-1.83,2V107H23.87v-6.58H25Zm9.21-1.07V107H33.08v-1a2.22,2.22,0,0,1-.87.79,2.78,2.78,0,0,1-1.23.28,3,3,0,0,1-1.38-.32,2.3,2.3,0,0,1-1-1,3.19,3.19,0,0,1-.35-1.54v-3.86h1.08v3.71a2.15,2.15,0,0,0,.49,1.5,1.76,1.76,0,0,0,1.35.52,1.81,1.81,0,0,0,1.38-.54,2.26,2.26,0,0,0,.5-1.57v-3.62Zm1.44,3.28a3.74,3.74,0,0,1,.41-1.78,2.92,2.92,0,0,1,1.13-1.18,3.62,3.62,0,0,1,3.66.16,2.84,2.84,0,0,1,1,1.64H40.67a1.66,1.66,0,0,0-.66-1,2,2,0,0,0-1.2-.35,1.94,1.94,0,0,0-1.51.65,2.62,2.62,0,0,0-.57,1.81,2.72,2.72,0,0,0,.57,1.84,1.94,1.94,0,0,0,1.51.64,2.07,2.07,0,0,0,1.2-.33,1.74,1.74,0,0,0,.66-1h1.18a3,3,0,0,1-1.06,1.62,3.15,3.15,0,0,1-2,.6,3.25,3.25,0,0,1-1.66-.42A3,3,0,0,1,36,105.5,3.8,3.8,0,0,1,35.61,103.7Zm9-2.38v3.88a1,1,0,0,0,.2.68,1,1,0,0,0,.71.2h.8V107h-1a2,2,0,0,1-1.37-.42,1.82,1.82,0,0,1-.45-1.38v-3.88h-.86v-.9h.86V98.77h1.09v1.65h1.71v.9Zm3.6-2a.75.75,0,0,1-.53-.22.72.72,0,0,1-.21-.53.72.72,0,0,1,.74-.74.69.69,0,0,1,.51.21.74.74,0,0,1,.21.53.72.72,0,0,1-.21.53A.7.7,0,0,1,48.24,99.36Zm.53,1.06V107H47.68v-6.58Zm4.73,6.69a3.38,3.38,0,0,1-1.68-.42,3.07,3.07,0,0,1-1.18-1.19,3.74,3.74,0,0,1-.42-1.8,3.69,3.69,0,0,1,.43-1.78,3,3,0,0,1,1.2-1.18,3.46,3.46,0,0,1,1.7-.42,3.42,3.42,0,0,1,1.69.42,3,3,0,0,1,1.19,1.17,3.84,3.84,0,0,1,0,3.59,3.1,3.1,0,0,1-1.22,1.19A3.48,3.48,0,0,1,53.5,107.11Zm0-1a2.22,2.22,0,0,0,1.1-.28,2,2,0,0,0,.83-.83,2.54,2.54,0,0,0,.33-1.34,2.63,2.63,0,0,0-.32-1.34,2,2,0,0,0-.81-.82,2.3,2.3,0,0,0-2.2,0,2,2,0,0,0-.79.82,2.74,2.74,0,0,0-.3,1.34,2.94,2.94,0,0,0,.29,1.36,2,2,0,0,0,.79.82A2.22,2.22,0,0,0,53.5,106.15Zm8-5.85a2.63,2.63,0,0,1,1.94.74,2.74,2.74,0,0,1,.75,2.08V107H63.12v-3.72a2.11,2.11,0,0,0-.49-1.5,1.77,1.77,0,0,0-1.35-.53,1.84,1.84,0,0,0-1.38.54,2.26,2.26,0,0,0-.5,1.57V107H58.31v-6.58H59.4v.94a2.12,2.12,0,0,1,.87-.78A2.86,2.86,0,0,1,61.51,100.3Zm6.8,6.81a3.66,3.66,0,0,1-1.36-.25,2.39,2.39,0,0,1-.94-.72,2,2,0,0,1-.39-1.07h1.13a1.08,1.08,0,0,0,.46.8,1.76,1.76,0,0,0,1.09.31,1.61,1.61,0,0,0,1-.27.86.86,0,0,0,.36-.7.66.66,0,0,0-.38-.63,4.65,4.65,0,0,0-1.19-.42,9.45,9.45,0,0,1-1.2-.39,2.16,2.16,0,0,1-.79-.59,1.53,1.53,0,0,1-.33-1,1.56,1.56,0,0,1,.3-.92,2,2,0,0,1,.86-.66,2.92,2.92,0,0,1,1.26-.25,2.69,2.69,0,0,1,1.76.55,2,2,0,0,1,.72,1.51H69.56a1.18,1.18,0,0,0-.42-.83,1.52,1.52,0,0,0-1-.31,1.58,1.58,0,0,0-.94.25.78.78,0,0,0-.34.66.72.72,0,0,0,.2.54,1.67,1.67,0,0,0,.53.34c.21.08.51.17.89.27a8.92,8.92,0,0,1,1.15.39,1.85,1.85,0,0,1,.75.55,1.46,1.46,0,0,1,.34,1,1.64,1.64,0,0,1-.3,1,2,2,0,0,1-.85.69A3.06,3.06,0,0,1,68.31,107.11Zm-47.76,9.53v.88H16.91v2.82h2.95v.89H16.91V125H15.82v-8.36Zm4.19,8.47a3.38,3.38,0,0,1-1.68-.42,3.07,3.07,0,0,1-1.18-1.19,3.74,3.74,0,0,1-.42-1.8,3.58,3.58,0,0,1,.43-1.78,3,3,0,0,1,1.2-1.18,3.63,3.63,0,0,1,3.39,0,2.89,2.89,0,0,1,1.18,1.17,3.77,3.77,0,0,1,0,3.59,3.08,3.08,0,0,1-1.21,1.19A3.48,3.48,0,0,1,24.74,125.11Zm0-1a2.22,2.22,0,0,0,1.1-.28,2.07,2.07,0,0,0,.83-.83,3,3,0,0,0,0-2.68,2,2,0,0,0-.82-.82,2.28,2.28,0,0,0-2.19,0,2,2,0,0,0-.79.82,2.74,2.74,0,0,0-.3,1.34,2.94,2.94,0,0,0,.28,1.36,2,2,0,0,0,.8.82A2.16,2.16,0,0,0,24.74,124.15Zm5.9-4.66a2.07,2.07,0,0,1,.81-.87,2.57,2.57,0,0,1,1.31-.32v1.13h-.29c-1.22,0-1.83.67-1.83,2V125h-1.1v-6.58h1.1Zm7.65-2.85v5.29a2.25,2.25,0,0,0,.54,1.65,2.06,2.06,0,0,0,1.52.54,2,2,0,0,0,1.5-.54,2.21,2.21,0,0,0,.55-1.65v-5.29h1.09v5.28a3.45,3.45,0,0,1-.42,1.76,2.71,2.71,0,0,1-1.14,1.06,3.57,3.57,0,0,1-1.59.34,3.69,3.69,0,0,1-1.61-.34,2.74,2.74,0,0,1-1.13-1.06,3.55,3.55,0,0,1-.41-1.76v-5.28Zm9.35,8.47a3.61,3.61,0,0,1-1.35-.25,2.42,2.42,0,0,1-.95-.72,2,2,0,0,1-.38-1.07h1.12a1.14,1.14,0,0,0,.46.8,1.76,1.76,0,0,0,1.09.31,1.62,1.62,0,0,0,1-.27.86.86,0,0,0,.36-.7.66.66,0,0,0-.39-.63,4.51,4.51,0,0,0-1.19-.42,10.65,10.65,0,0,1-1.2-.39,2.25,2.25,0,0,1-.79-.59,1.59,1.59,0,0,1-.32-1,1.56,1.56,0,0,1,.3-.92,2,2,0,0,1,.85-.66,3,3,0,0,1,1.26-.25,2.65,2.65,0,0,1,1.76.55,2,2,0,0,1,.72,1.51H48.89a1.11,1.11,0,0,0-.42-.83,1.51,1.51,0,0,0-1-.31,1.53,1.53,0,0,0-.93.25.79.79,0,0,0-.35.66.77.77,0,0,0,.2.54,1.79,1.79,0,0,0,.53.34c.22.08.51.17.89.27a8.42,8.42,0,0,1,1.15.39,1.89,1.89,0,0,1,.76.55,1.46,1.46,0,0,1,.33,1,1.64,1.64,0,0,1-.3,1,2,2,0,0,1-.85.69A3,3,0,0,1,47.64,125.11Zm10-3.65c0,.21,0,.43,0,.66H52.29a2.13,2.13,0,0,0,.66,1.52,2.16,2.16,0,0,0,1.48.54,2,2,0,0,0,1.18-.32,1.75,1.75,0,0,0,.67-.89h1.17a2.82,2.82,0,0,1-1.05,1.55,3.24,3.24,0,0,1-2,.59,3.38,3.38,0,0,1-1.68-.42,3,3,0,0,1-1.15-1.19,3.74,3.74,0,0,1-.42-1.8,3.67,3.67,0,0,1,.41-1.79,2.8,2.8,0,0,1,1.14-1.17,3.65,3.65,0,0,1,3.36,0,2.85,2.85,0,0,1,1.1,1.13A3.28,3.28,0,0,1,57.59,121.46Zm-1.13-.23a2,2,0,0,0-.28-1.07,1.7,1.7,0,0,0-.75-.68,2.28,2.28,0,0,0-1-.24,2,2,0,0,0-1.41.53,2.11,2.11,0,0,0-.66,1.46Z"/><circle class="cls-1" cx="38.5" cy="38.5" r="38"/><path class="cls-2" d="M38.06,19h4.33c0,2.53,0,5.06,0,7.6A2.13,2.13,0,0,0,43,28.1a2.15,2.15,0,0,0,1.48.63h7.59c0,.14,0,.29,0,.43V52.51a3.21,3.21,0,0,1-2.58,3.34.24.24,0,0,0-.08.06H38.06V49.36h2.12a1.06,1.06,0,0,0,1.12-1.06,1,1,0,0,0-1.12-1.09H38.05V45h6.52a1.08,1.08,0,0,0,1-1.07,1.09,1.09,0,0,0-.3-.75,1.08,1.08,0,0,0-.74-.33H38.05V40.72h6.52a1.08,1.08,0,0,0,.74-.33,1.09,1.09,0,0,0,.3-.75,1.07,1.07,0,0,0-.3-.74,1.08,1.08,0,0,0-.74-.33c-.81,0-1.63,0-2.45,0l-4.07,0V36.4l.43,0h6.09a1,1,0,0,0,.74-.32,1.09,1.09,0,0,0,.3-.75,1.07,1.07,0,0,0-.3-.74,1,1,0,0,0-.74-.33c-.81,0-1.63,0-2.45,0l-4.07,0Z"/><path class="cls-3" d="M52.1,28.73H44.5A2.13,2.13,0,0,1,43,28.1a2.15,2.15,0,0,1-.63-1.48c0-2.53,0-5.07,0-7.6a1.19,1.19,0,0,1,.82.4q4.24,4.26,8.52,8.52A1.2,1.2,0,0,1,52.1,28.73Z"/><rect class="cls-2" x="30" y="32.92" width="8" height="20"/><rect class="cls-2" x="38" y="32.92" width="8" height="20"/><path class="cls-2" d="M38.06,55.92H26.67c0-.07-.1-.07-.15-.09A3.24,3.24,0,0,1,24,52.42v-30A3.24,3.24,0,0,1,27.39,19H38.06V34.2H31.68a1.09,1.09,0,0,0-1.08.63,1.08,1.08,0,0,0,1,1.53h6.41v2.16H31.68a1.1,1.1,0,0,0-1.08.64,1.08,1.08,0,0,0,1,1.53h6.41v2.14H31.68a1.09,1.09,0,0,0-1.08.63,1.08,1.08,0,0,0,1,1.53h6.41v2.15H31.68a1.09,1.09,0,0,0-1.08.63,1.08,1.08,0,0,0,1,1.53h6.41Z"/><path class="cls-4" d="M29,34.92H41a1,1,0,0,1,1,1h0a1,1,0,0,1-1,1H29a1,1,0,0,1-1-1h0A1,1,0,0,1,29,34.92Z"/><path class="cls-4" d="M29,39.92h8a1,1,0,0,1,1,1h0a1,1,0,0,1-1,1H29a1,1,0,0,1-1-1h0A1,1,0,0,1,29,39.92Z"/><path class="cls-4" d="M29,44.92h3a1,1,0,0,1,1,1h0a1,1,0,0,1-1,1H29a1,1,0,0,1-1-1h0A1,1,0,0,1,29,44.92Z"/><path class="cls-5" d="M45.5,37.86a2.36,2.36,0,1,0,2.36,2.35A2.42,2.42,0,0,0,45.5,37.86ZM40,44.14v1.57a3.08,3.08,0,0,1,3.14,3.15V52A3.08,3.08,0,0,1,40,55.14v1.57H51V55.14A3.08,3.08,0,0,1,47.86,52V45.71a1.7,1.7,0,0,0-1.57-1.57Z"/><circle class="cls-6" cx="45.5" cy="40.21" r="2.36"/></g></g></svg>